# xmcd
#
# Track frame offsets:
#	150
#	15496
#	29440
#	54123
#	76534
#	93605
#	109252
#	133056
#	153134
#	169194
#
# Disc length: 2466 seconds
#
# Revision: 1
# Processed by: cddbd v1.5.2PL0 Copyright (c) Steve Scherf et al.
# Submitted via: audiograbber 1.83.01
#
DISCID=6c09a00a
DTITLE=Rob Berry - Big Tone
DYEAR=2012
DGENRE=Blues
TTITLE0=Hey! That's Alright
TTITLE1=Running For The Bus
TTITLE2=A Whiter Shade Of Pale
TTITLE3=This Thing Called Love
TTITLE4=Call Me The Breeze
TTITLE5=Crossroads
TTITLE6=The Wind Cries Mary
TTITLE7=Hey Joe
TTITLE8=Howlin' For My Baby
TTITLE9=Green Light
EXTD=
EXTT0=
EXTT1=
EXTT2=
EXTT3=
EXTT4=
EXTT5=
EXTT6=
EXTT7=
EXTT8=
EXTT9=
PLAYORDER=
